<svg xmlns="http://www.w3.org/2000/svg" version="1.1"
  xmlns:xlink="http://www.w3.org/1999/xlink"
  xmlns:svgjs="http://svgjs.com/svgjs" viewBox="0 0 512 512" style="enable-background:new 0 0 512 512" xml:space="preserve">
  <g>
    <g xmlns="http://www.w3.org/2000/svg" id="diamond">
      <path d="m461.23 112.46c-.69-6.22-1.38-11.21-2.2-17.44-2.49-18.83-18.57-35.24-37.68-38.53-18.21-3.1-48.35-6.49-83.46-8.56-.34-4.22-.68-8.44-1.06-12.67-1.44-15.79-12.07-28.84-25-30.73-42.54-6-62-6-104.54-.23-12.94 1.84-23.53 14.86-24.94 30.7-.36 4.18-.69 8.36-1 12.53-38.19 2.08-71.23 5.67-90.68 9-19.13 3.26-35.22 19.66-37.67 38.47-.81 6.23-1.5 11.22-2.19 17.44-1.7 15 10.11 26.88 25.67 26.16q179.57-8.76 359.12 0c15.52.74 27.33-11.17 25.63-26.14z"></path>
      <path d="m433.31 255.49c-.23-25.14-.81-47.56-1.14-51.05-1.5-16.09-15-29.34-31.61-31.31-27.62-3.25-86.94-4.51-146-4.41h-1q-4.23 0-8.08 0c-54.75.21-107.79 1.35-133.45 4.37-16.65 2-30.12 15.21-31.61 31.31-.3 3.25-.82 21.24-1.09 45.72-1 28.27-.37 42.68 2.58 80.51 3.56 43.81 8 65.06 13.85 93.73 4 19.5 14.73 38.46 29.83 53.34s33.63 24.91 52.76 27.86l.59.09c23.32 3.38 27.1 6 75.87 6.32 48.76-.25 56.69-3 80-6.4l.58-.09c19.13-3 37.74-13 52.67-27.89s25.69-33.83 29.6-53.32c5.73-28.66 10-49.88 13.35-93.67 2.58-35.45 3.11-47.34 2.3-75.11zm-210.37 137.06a21.86 21.86 0 0 1 -20.12 20.31c-6.47.45-6.25.44-8.3.4a72.24 72.24 0 0 1 -8.31-.76 23.83 23.83 0 0 1 -20.68-21c-.74-6.55-1.86-54-1.92-66.27s0-59.71.68-66.25a22.73 22.73 0 0 1 20.65-20.52 78.83 78.83 0 0 1 8.46-.59 74.38 74.38 0 0 1 8.46.55 22.65 22.65 0 0 1 20.63 20.58c.57 6.59 1.06 54.43 1.12 66.8s-.15 60.2-.67 66.75zm123.53-1.09a23.84 23.84 0 0 1 -20.68 21 71.16 71.16 0 0 1 -8.31.76 70.22 70.22 0 0 1 -8.3-.4 21.86 21.86 0 0 1 -20.12-20.31c-.52-6.58-.69-54.42-.67-66.79s.55-60.21 1.12-66.8a22.65 22.65 0 0 1 20.63-20.58 77.93 77.93 0 0 1 8.46-.55 74.81 74.81 0 0 1 8.46.59 22.73 22.73 0 0 1 20.65 20.52c.63 6.54.85 54 .68 66.25s-1.18 59.76-1.92 66.31z"></path>
    </g>
  </g>
</svg>
